# xmcd
# 
# Track frame offsets:
#     150
#     12498
#     33648
#     53165
#     78628
#     96636
#     117962
#     134360
#     152679
#     171035
#     182817
#     206288
#     218106
# 
# Disc length: 3117
# 
# Revision: 1
# Processed by: cddbd v1.5.2PL0 Copyright (c) Steve Scherf et al.
# Submitted via: fre:ac v1.0.27
# 
DISCID=b60c2b0d
DTITLE=Monster Mike Welch - Just Like It Is
DYEAR=2007
DGENRE=Blues
TTITLE0=She Makes Time
TTITLE1=Please
TTITLE2=My Baby Loves Me
TTITLE3=Don't Expect Me to Cry
TTITLE4=Keep on Walking
TTITLE5=I'm Gonna Move to Another Country
TTITLE6=Sticky Whisket
TTITLE7=A Perfect World
TTITLE8=Now That You're Gone
TTITLE9=I'm Not a Stupid Man
TTITLE10=Love That Burns
TTITLE11=Move Along
TTITLE12=I Got a Strange Feeling
EXTD=
EXTT0=
EXTT1=
EXTT2=
EXTT3=
EXTT4=
EXTT5=
EXTT6=
EXTT7=
EXTT8=
EXTT9=
EXTT10=
EXTT11=
EXTT12=
PLAYORDER=
